<mxfile host="app.diagrams.net" agent="Mozilla/5.0 (Windows NT 10.0; Win64; x64) AppleWebKit/537.36 (KHTML, like Gecko) Chrome/134.0.0.0 Safari/537.36" version="26.2.8">
  <diagram name="PaginÄƒ-1" id="z4F2WYlpEBlRiK372TiV">
    <mxGraphModel dx="1107" dy="1245" grid="0" gridSize="10" guides="1" tooltips="1" connect="1" arrows="1" fold="1" page="0" pageScale="1" pageWidth="827" pageHeight="1169" math="0" shadow="0">
      <root>
        <mxCell id="0" />
        <mxCell id="1" parent="0" />
        <mxCell id="259Se8iA0puFsPN-Wd5A-1" value="ESP32-C6&lt;div&gt;MCU&lt;/div&gt;" style="whiteSpace=wrap;html=1;aspect=fixed;" vertex="1" parent="1">
          <mxGeometry x="73" y="101" width="133" height="133" as="geometry" />
        </mxCell>
        <mxCell id="259Se8iA0puFsPN-Wd5A-7" value="BME688" style="whiteSpace=wrap;html=1;aspect=fixed;" vertex="1" parent="1">
          <mxGeometry x="382" y="392" width="61" height="61" as="geometry" />
        </mxCell>
        <mxCell id="259Se8iA0puFsPN-Wd5A-9" value="Real Time Clock" style="rounded=0;whiteSpace=wrap;html=1;" vertex="1" parent="1">
          <mxGeometry x="96" y="403" width="87" height="60" as="geometry" />
        </mxCell>
        <mxCell id="259Se8iA0puFsPN-Wd5A-12" value="Buttons&lt;div&gt;Boot, Reset, Change&lt;/div&gt;" style="rounded=0;whiteSpace=wrap;html=1;" vertex="1" parent="1">
          <mxGeometry x="375" y="137" width="120" height="61" as="geometry" />
        </mxCell>
        <mxCell id="259Se8iA0puFsPN-Wd5A-14" value="Micro&amp;nbsp; SD Card" style="whiteSpace=wrap;html=1;aspect=fixed;" vertex="1" parent="1">
          <mxGeometry x="-155" y="373" width="80" height="80" as="geometry" />
        </mxCell>
        <mxCell id="259Se8iA0puFsPN-Wd5A-16" value="7.5 e-Paper Display" style="whiteSpace=wrap;html=1;aspect=fixed;" vertex="1" parent="1">
          <mxGeometry x="-164" y="127.5" width="80" height="80" as="geometry" />
        </mxCell>
        <mxCell id="259Se8iA0puFsPN-Wd5A-18" value="USB" style="rounded=0;whiteSpace=wrap;html=1;" vertex="1" parent="1">
          <mxGeometry x="197" y="-155" width="120" height="60" as="geometry" />
        </mxCell>
        <mxCell id="259Se8iA0puFsPN-Wd5A-20" value="Battery Charger&lt;div&gt;&lt;span id=&quot;docs-internal-guid-552abbfc-7fff-8711-8199-7e416f1aa196&quot;&gt;&lt;span style=&quot;font-size: 12pt; font-family: Arial, sans-serif; color: rgb(27, 28, 29); background-color: transparent; font-variant-numeric: normal; font-variant-east-asian: normal; font-variant-alternates: normal; font-variant-position: normal; font-variant-emoji: normal; vertical-align: baseline; white-space-collapse: preserve;&quot;&gt;MCP73831&lt;/span&gt;&lt;/span&gt;&lt;/div&gt;" style="rounded=0;whiteSpace=wrap;html=1;" vertex="1" parent="1">
          <mxGeometry x="-138" y="-155" width="120" height="60" as="geometry" />
        </mxCell>
        <mxCell id="259Se8iA0puFsPN-Wd5A-30" value="" style="endArrow=classic;html=1;rounded=0;fontSize=12;startSize=8;endSize=8;curved=1;entryX=0;entryY=0;entryDx=0;entryDy=0;exitX=1;exitY=1;exitDx=0;exitDy=0;" edge="1" parent="1" source="259Se8iA0puFsPN-Wd5A-1" target="259Se8iA0puFsPN-Wd5A-7">
          <mxGeometry relative="1" as="geometry">
            <mxPoint x="93" y="197" as="sourcePoint" />
            <mxPoint x="253" y="197" as="targetPoint" />
          </mxGeometry>
        </mxCell>
        <mxCell id="259Se8iA0puFsPN-Wd5A-31" value="I2C" style="edgeLabel;resizable=0;html=1;;align=center;verticalAlign=middle;" connectable="0" vertex="1" parent="259Se8iA0puFsPN-Wd5A-30">
          <mxGeometry relative="1" as="geometry" />
        </mxCell>
        <mxCell id="259Se8iA0puFsPN-Wd5A-33" value="" style="endArrow=classic;html=1;rounded=0;fontSize=12;startSize=8;endSize=8;curved=1;entryX=0.5;entryY=0;entryDx=0;entryDy=0;exitX=0.5;exitY=1;exitDx=0;exitDy=0;" edge="1" parent="1" source="259Se8iA0puFsPN-Wd5A-1" target="259Se8iA0puFsPN-Wd5A-9">
          <mxGeometry relative="1" as="geometry">
            <mxPoint x="123" y="197" as="sourcePoint" />
            <mxPoint x="223" y="197" as="targetPoint" />
          </mxGeometry>
        </mxCell>
        <mxCell id="259Se8iA0puFsPN-Wd5A-34" value="I2C" style="edgeLabel;resizable=0;html=1;;align=center;verticalAlign=middle;" connectable="0" vertex="1" parent="259Se8iA0puFsPN-Wd5A-33">
          <mxGeometry relative="1" as="geometry" />
        </mxCell>
        <mxCell id="259Se8iA0puFsPN-Wd5A-35" value="" style="endArrow=classic;html=1;rounded=0;fontSize=12;startSize=8;endSize=8;curved=1;entryX=1;entryY=0;entryDx=0;entryDy=0;exitX=0;exitY=1;exitDx=0;exitDy=0;" edge="1" parent="1" source="259Se8iA0puFsPN-Wd5A-1" target="259Se8iA0puFsPN-Wd5A-14">
          <mxGeometry relative="1" as="geometry">
            <mxPoint x="123" y="197" as="sourcePoint" />
            <mxPoint x="223" y="197" as="targetPoint" />
          </mxGeometry>
        </mxCell>
        <mxCell id="259Se8iA0puFsPN-Wd5A-36" value="SPI" style="edgeLabel;resizable=0;html=1;;align=center;verticalAlign=middle;" connectable="0" vertex="1" parent="259Se8iA0puFsPN-Wd5A-35">
          <mxGeometry relative="1" as="geometry" />
        </mxCell>
        <mxCell id="259Se8iA0puFsPN-Wd5A-37" value="" style="endArrow=classic;html=1;rounded=0;fontSize=12;startSize=8;endSize=8;curved=1;entryX=0;entryY=0.5;entryDx=0;entryDy=0;exitX=1;exitY=0.5;exitDx=0;exitDy=0;" edge="1" parent="1" source="259Se8iA0puFsPN-Wd5A-1" target="259Se8iA0puFsPN-Wd5A-12">
          <mxGeometry relative="1" as="geometry">
            <mxPoint x="123" y="197" as="sourcePoint" />
            <mxPoint x="223" y="197" as="targetPoint" />
          </mxGeometry>
        </mxCell>
        <mxCell id="259Se8iA0puFsPN-Wd5A-38" value="GPIO" style="edgeLabel;resizable=0;html=1;;align=center;verticalAlign=middle;" connectable="0" vertex="1" parent="259Se8iA0puFsPN-Wd5A-37">
          <mxGeometry relative="1" as="geometry" />
        </mxCell>
        <mxCell id="259Se8iA0puFsPN-Wd5A-39" value="" style="endArrow=classic;html=1;rounded=0;fontSize=12;startSize=8;endSize=8;curved=1;entryX=1;entryY=0.5;entryDx=0;entryDy=0;exitX=0;exitY=0.5;exitDx=0;exitDy=0;" edge="1" parent="1" source="259Se8iA0puFsPN-Wd5A-1" target="259Se8iA0puFsPN-Wd5A-16">
          <mxGeometry relative="1" as="geometry">
            <mxPoint x="123" y="197" as="sourcePoint" />
            <mxPoint x="223" y="197" as="targetPoint" />
          </mxGeometry>
        </mxCell>
        <mxCell id="259Se8iA0puFsPN-Wd5A-40" value="SPI" style="edgeLabel;resizable=0;html=1;;align=center;verticalAlign=middle;" connectable="0" vertex="1" parent="259Se8iA0puFsPN-Wd5A-39">
          <mxGeometry relative="1" as="geometry" />
        </mxCell>
        <mxCell id="259Se8iA0puFsPN-Wd5A-41" value="" style="endArrow=classic;html=1;rounded=0;fontSize=12;startSize=8;endSize=8;curved=1;entryX=1;entryY=0.5;entryDx=0;entryDy=0;exitX=1;exitY=0;exitDx=0;exitDy=0;" edge="1" parent="1" source="259Se8iA0puFsPN-Wd5A-1" target="259Se8iA0puFsPN-Wd5A-18">
          <mxGeometry relative="1" as="geometry">
            <mxPoint x="123" y="197" as="sourcePoint" />
            <mxPoint x="223" y="197" as="targetPoint" />
            <Array as="points">
              <mxPoint x="419" y="41" />
              <mxPoint x="431" y="-10" />
              <mxPoint x="419" y="-38" />
              <mxPoint x="388" y="-74" />
            </Array>
          </mxGeometry>
        </mxCell>
        <mxCell id="259Se8iA0puFsPN-Wd5A-42" value="USB&lt;div&gt;&lt;br&gt;&lt;/div&gt;" style="edgeLabel;resizable=0;html=1;;align=center;verticalAlign=middle;" connectable="0" vertex="1" parent="259Se8iA0puFsPN-Wd5A-41">
          <mxGeometry relative="1" as="geometry" />
        </mxCell>
        <mxCell id="259Se8iA0puFsPN-Wd5A-43" value="" style="endArrow=classic;html=1;rounded=0;fontSize=12;startSize=8;endSize=8;curved=1;entryX=1;entryY=0.5;entryDx=0;entryDy=0;exitX=0;exitY=0.5;exitDx=0;exitDy=0;" edge="1" parent="1" source="259Se8iA0puFsPN-Wd5A-18" target="259Se8iA0puFsPN-Wd5A-20">
          <mxGeometry relative="1" as="geometry">
            <mxPoint x="200" y="-122" as="sourcePoint" />
            <mxPoint x="-15" y="-128" as="targetPoint" />
            <Array as="points">
              <mxPoint x="83" y="-177" />
            </Array>
          </mxGeometry>
        </mxCell>
        <mxCell id="259Se8iA0puFsPN-Wd5A-44" value="5V" style="edgeLabel;resizable=0;html=1;;align=center;verticalAlign=middle;" connectable="0" vertex="1" parent="259Se8iA0puFsPN-Wd5A-43">
          <mxGeometry relative="1" as="geometry" />
        </mxCell>
        <mxCell id="259Se8iA0puFsPN-Wd5A-46" value="2500mAh Battery" style="rounded=1;whiteSpace=wrap;html=1;" vertex="1" parent="1">
          <mxGeometry x="-116" y="-49" width="120" height="32" as="geometry" />
        </mxCell>
        <mxCell id="259Se8iA0puFsPN-Wd5A-47" value="5V-&amp;gt;3V3 LDO" style="rounded=1;whiteSpace=wrap;html=1;" vertex="1" parent="1">
          <mxGeometry x="-65" y="29" width="120" height="37" as="geometry" />
        </mxCell>
        <mxCell id="259Se8iA0puFsPN-Wd5A-48" value="" style="endArrow=classic;html=1;rounded=0;fontSize=12;startSize=8;endSize=8;curved=1;entryX=0.5;entryY=0;entryDx=0;entryDy=0;exitX=0.5;exitY=1;exitDx=0;exitDy=0;" edge="1" parent="1" source="259Se8iA0puFsPN-Wd5A-20" target="259Se8iA0puFsPN-Wd5A-46">
          <mxGeometry relative="1" as="geometry">
            <mxPoint x="123" y="197" as="sourcePoint" />
            <mxPoint x="223" y="197" as="targetPoint" />
          </mxGeometry>
        </mxCell>
        <mxCell id="259Se8iA0puFsPN-Wd5A-49" value="..." style="edgeLabel;resizable=0;html=1;;align=center;verticalAlign=middle;" connectable="0" vertex="1" parent="259Se8iA0puFsPN-Wd5A-48">
          <mxGeometry relative="1" as="geometry" />
        </mxCell>
        <mxCell id="259Se8iA0puFsPN-Wd5A-50" value="" style="endArrow=classic;html=1;rounded=0;fontSize=12;startSize=8;endSize=8;curved=1;exitX=0.5;exitY=1;exitDx=0;exitDy=0;entryX=0.5;entryY=0;entryDx=0;entryDy=0;" edge="1" parent="1" source="259Se8iA0puFsPN-Wd5A-46" target="259Se8iA0puFsPN-Wd5A-47">
          <mxGeometry relative="1" as="geometry">
            <mxPoint x="123" y="197" as="sourcePoint" />
            <mxPoint x="223" y="197" as="targetPoint" />
          </mxGeometry>
        </mxCell>
        <mxCell id="259Se8iA0puFsPN-Wd5A-52" value="" style="endArrow=classic;html=1;rounded=0;fontSize=12;startSize=8;endSize=8;curved=1;exitX=0.5;exitY=1;exitDx=0;exitDy=0;entryX=0;entryY=0;entryDx=0;entryDy=0;" edge="1" parent="1" source="259Se8iA0puFsPN-Wd5A-47" target="259Se8iA0puFsPN-Wd5A-1">
          <mxGeometry relative="1" as="geometry">
            <mxPoint x="123" y="197" as="sourcePoint" />
            <mxPoint x="223" y="197" as="targetPoint" />
            <Array as="points">
              <mxPoint x="-1" y="115" />
            </Array>
          </mxGeometry>
        </mxCell>
        <mxCell id="259Se8iA0puFsPN-Wd5A-53" value="3.3V" style="edgeLabel;resizable=0;html=1;;align=center;verticalAlign=middle;" connectable="0" vertex="1" parent="259Se8iA0puFsPN-Wd5A-52">
          <mxGeometry relative="1" as="geometry" />
        </mxCell>
      </root>
    </mxGraphModel>
  </diagram>
</mxfile>
